<svg width="262" height="262" viewBox="0 0 262 262" fill="none" xmlns="http://www.w3.org/2000/svg">
<path d="M106.765 104.073C130.881 104.073 150.432 84.5224 150.432 60.4059C150.432 36.2895 130.881 16.7393 106.765 16.7393C82.6486 16.7393 63.0983 36.2895 63.0983 60.4059C63.0983 84.5224 82.6486 104.073 106.765 104.073Z" fill="black"/>
<path d="M119.647 231.579C117.242 229.2 115.672 226.106 115.174 222.761C114.675 219.415 115.274 215.998 116.881 213.021L120.738 205.743L112.806 203.341C109.571 202.329 106.754 200.289 104.784 197.531C102.814 194.772 101.797 191.447 101.889 188.058V173.139C101.883 169.765 102.962 166.479 104.967 163.766C106.972 161.053 109.797 159.058 113.024 158.074L120.957 155.672L117.172 148.394C115.612 145.458 115.019 142.105 115.476 138.812C115.933 135.519 117.418 132.454 119.719 130.054C114.12 129.322 108.482 128.933 102.835 128.89C86.1567 128.497 69.5972 131.79 54.3376 138.533C39.0781 145.276 25.4944 155.303 14.5555 167.899V224.301C14.5555 226.232 15.3223 228.083 16.6872 229.448C18.052 230.812 19.9031 231.579 21.8333 231.579H119.647Z" fill="black"/>
<path d="M245.261 170.737L230.706 166.37C229.699 162.775 228.282 159.307 226.484 156.036L233.762 142.499C234.044 141.996 234.146 141.414 234.054 140.845C233.961 140.277 233.679 139.757 233.253 139.369L222.7 128.744C222.294 128.348 221.775 128.087 221.216 127.996C220.656 127.905 220.081 127.988 219.571 128.234L206.107 135.512C202.793 133.71 199.307 132.247 195.699 131.146L191.26 116.59C191.065 116.053 190.708 115.59 190.239 115.265C189.77 114.939 189.211 114.766 188.64 114.771H173.502C172.935 114.786 172.386 114.977 171.93 115.315C171.475 115.654 171.134 116.124 170.955 116.663L166.588 131.218C162.915 132.297 159.375 133.786 156.036 135.658L142.863 128.38C142.351 128.108 141.766 128.004 141.191 128.082C140.617 128.16 140.081 128.417 139.661 128.817L128.962 139.297C128.541 139.703 128.263 140.235 128.172 140.813C128.08 141.39 128.178 141.982 128.453 142.499L135.731 155.744C133.779 159.031 132.193 162.52 131 166.152L116.444 170.591C115.894 170.75 115.411 171.086 115.069 171.546C114.727 172.006 114.546 172.565 114.552 173.138V188.058C114.546 188.631 114.727 189.19 115.069 189.65C115.411 190.111 115.894 190.446 116.444 190.605L131 195.044C132.092 198.609 133.555 202.048 135.367 205.306L128.089 219.134C127.814 219.651 127.716 220.243 127.808 220.82C127.9 221.398 128.177 221.93 128.598 222.336L139.442 232.889C139.863 233.288 140.398 233.545 140.973 233.624C141.548 233.702 142.132 233.598 142.644 233.326L156.254 226.048C159.491 227.794 162.907 229.185 166.443 230.196L170.809 245.116C170.993 245.666 171.344 246.145 171.814 246.484C172.284 246.824 172.849 247.007 173.429 247.008H188.349C188.916 246.992 189.465 246.802 189.921 246.463C190.377 246.125 190.717 245.654 190.896 245.116L195.263 230.196C198.755 229.192 202.123 227.8 205.306 226.048L219.061 233.326C219.573 233.598 220.158 233.702 220.733 233.624C221.307 233.545 221.843 233.288 222.263 232.889L232.889 222.336C233.288 221.916 233.545 221.38 233.624 220.805C233.702 220.231 233.598 219.646 233.326 219.134L226.048 205.452C227.785 202.261 229.175 198.894 230.196 195.408L244.752 190.969C245.299 190.793 245.779 190.455 246.13 190.001C246.481 189.546 246.685 188.995 246.717 188.422V173.357C246.734 172.829 246.608 172.306 246.352 171.845C246.096 171.383 245.719 171 245.261 170.737ZM180.998 205.088C176.188 205.102 171.481 203.689 167.474 201.027C163.467 198.364 160.34 194.573 158.489 190.133C156.638 185.692 156.146 180.803 157.076 176.083C158.006 171.363 160.315 167.025 163.712 163.618C167.108 160.211 171.439 157.889 176.157 156.945C180.874 156.001 185.765 156.478 190.211 158.316C194.657 160.153 198.457 163.269 201.132 167.268C203.806 171.267 205.233 175.969 205.233 180.78C205.233 187.214 202.682 193.386 198.14 197.943C193.597 202.499 187.433 205.069 180.998 205.088Z" fill="black"/>
</svg>
