<svg width="289" height="289" viewBox="0 0 289 289" fill="none" xmlns="http://www.w3.org/2000/svg">
<path d="M270.667 178.435L245.289 76.9011C244.312 72.9916 242.055 69.5211 238.878 67.0419C235.701 64.5626 231.787 63.2168 227.757 63.2188H153.531V45.1562C153.531 40.3658 151.628 35.7715 148.241 32.3841C144.853 28.9968 140.259 27.0938 135.469 27.0938H90.3125C85.522 27.0938 80.9278 28.9968 77.5404 32.3841C74.153 35.7715 72.25 40.3658 72.25 45.1562V63.2188H61.2432C57.2134 63.2168 53.2987 64.5626 50.1218 67.0419C46.945 69.5211 44.6885 72.9916 43.7113 76.9011L18.3334 178.435C18.1539 179.151 18.0629 179.887 18.0625 180.625V216.75C18.0625 221.54 19.9655 226.135 23.3529 229.522C26.7403 232.909 31.3345 234.812 36.125 234.812H252.875C257.665 234.812 262.26 232.909 265.647 229.522C269.034 226.135 270.938 221.54 270.938 216.75V180.625C270.937 179.887 270.846 179.151 270.667 178.435ZM189.656 99.3438H207.719C210.114 99.3438 212.411 100.295 214.105 101.989C215.799 103.683 216.75 105.98 216.75 108.375C216.75 110.77 215.799 113.067 214.105 114.761C212.411 116.455 210.114 117.406 207.719 117.406H189.656C187.261 117.406 184.964 116.455 183.27 114.761C181.576 113.067 180.625 110.77 180.625 108.375C180.625 105.98 181.576 103.683 183.27 101.989C184.964 100.295 187.261 99.3438 189.656 99.3438ZM189.656 135.469H207.719C210.114 135.469 212.411 136.42 214.105 138.114C215.799 139.808 216.75 142.105 216.75 144.5C216.75 146.895 215.799 149.192 214.105 150.886C212.411 152.58 210.114 153.531 207.719 153.531H189.656C187.261 153.531 184.964 152.58 183.27 150.886C181.576 149.192 180.625 146.895 180.625 144.5C180.625 142.105 181.576 139.808 183.27 138.114C184.964 136.42 187.261 135.469 189.656 135.469ZM153.531 99.3438C155.926 99.3438 158.224 100.295 159.917 101.989C161.611 103.683 162.562 105.98 162.562 108.375C162.562 110.77 161.611 113.067 159.917 114.761C158.224 116.455 155.926 117.406 153.531 117.406H135.469C133.074 117.406 130.776 116.455 129.083 114.761C127.389 113.067 126.438 110.77 126.438 108.375C126.438 105.98 127.389 103.683 129.083 101.989C130.776 100.295 133.074 99.3438 135.469 99.3438H153.531ZM162.562 144.5C162.562 146.895 161.611 149.192 159.917 150.886C158.224 152.58 155.926 153.531 153.531 153.531H135.469C133.074 153.531 130.776 152.58 129.083 150.886C127.389 149.192 126.438 146.895 126.438 144.5C126.438 142.105 127.389 139.808 129.083 138.114C130.776 136.42 133.074 135.469 135.469 135.469H153.531C155.926 135.469 158.224 136.42 159.917 138.114C161.611 139.808 162.562 142.105 162.562 144.5ZM90.3125 45.1562H135.469V63.2188H90.3125V45.1562ZM81.2812 99.3438H99.3438C101.739 99.3438 104.036 100.295 105.73 101.989C107.423 103.683 108.375 105.98 108.375 108.375C108.375 110.77 107.423 113.067 105.73 114.761C104.036 116.455 101.739 117.406 99.3438 117.406H81.2812C78.886 117.406 76.5889 116.455 74.8952 114.761C73.2015 113.067 72.25 110.77 72.25 108.375C72.25 105.98 73.2015 103.683 74.8952 101.989C76.5889 100.295 78.886 99.3438 81.2812 99.3438ZM81.2812 135.469H99.3438C101.739 135.469 104.036 136.42 105.73 138.114C107.423 139.808 108.375 142.105 108.375 144.5C108.375 146.895 107.423 149.192 105.73 150.886C104.036 152.58 101.739 153.531 99.3438 153.531H81.2812C78.886 153.531 76.5889 152.58 74.8952 150.886C73.2015 149.192 72.25 146.895 72.25 144.5C72.25 142.105 73.2015 139.808 74.8952 138.114C76.5889 136.42 78.886 135.469 81.2812 135.469ZM252.875 216.75H36.125V189.656H252.875V216.75Z" fill="black"/>
</svg>
