<svg width="202" height="202" viewBox="0 0 202 202" fill="none" xmlns="http://www.w3.org/2000/svg">
<path d="M84.1667 25.25H33.6667C31.4344 25.25 29.2936 26.1368 27.7152 27.7152C26.1368 29.2936 25.25 31.4344 25.25 33.6667V84.1667C25.25 86.3989 26.1368 88.5397 27.7152 90.1181C29.2936 91.6966 31.4344 92.5833 33.6667 92.5833H84.1667C86.3989 92.5833 88.5397 91.6966 90.1181 90.1181C91.6966 88.5397 92.5833 86.3989 92.5833 84.1667V33.6667C92.5833 31.4344 91.6966 29.2936 90.1181 27.7152C88.5397 26.1368 86.3989 25.25 84.1667 25.25ZM168.333 25.25H117.833C115.601 25.25 113.46 26.1368 111.882 27.7152C110.303 29.2936 109.417 31.4344 109.417 33.6667V84.1667C109.417 86.3989 110.303 88.5397 111.882 90.1181C113.46 91.6966 115.601 92.5833 117.833 92.5833H168.333C170.566 92.5833 172.706 91.6966 174.285 90.1181C175.863 88.5397 176.75 86.3989 176.75 84.1667V33.6667C176.75 31.4344 175.863 29.2936 174.285 27.7152C172.706 26.1368 170.566 25.25 168.333 25.25ZM84.1667 109.417H33.6667C31.4344 109.417 29.2936 110.303 27.7152 111.882C26.1368 113.46 25.25 115.601 25.25 117.833V168.333C25.25 170.566 26.1368 172.706 27.7152 174.285C29.2936 175.863 31.4344 176.75 33.6667 176.75H84.1667C86.3989 176.75 88.5397 175.863 90.1181 174.285C91.6966 172.706 92.5833 170.566 92.5833 168.333V117.833C92.5833 115.601 91.6966 113.46 90.1181 111.882C88.5397 110.303 86.3989 109.417 84.1667 109.417ZM143.083 109.417C149.67 109.417 156.113 111.349 161.612 114.974C167.112 118.599 171.427 123.758 174.024 129.812C176.62 135.865 177.384 142.548 176.22 149.031C175.057 155.514 172.017 161.514 167.477 166.286C162.937 171.059 157.097 174.395 150.68 175.882C144.263 177.368 137.551 176.939 131.375 174.649C125.2 172.358 119.831 168.306 115.936 162.994C112.04 157.683 109.788 151.345 109.459 144.767L109.417 143.083L109.459 141.4C109.891 132.773 113.622 124.643 119.88 118.69C126.139 112.736 134.446 109.417 143.083 109.417Z" fill="black"/>
</svg>
