<svg width="258" height="258" viewBox="0 0 258 258" fill="none" xmlns="http://www.w3.org/2000/svg">
<path d="M182.75 236.5C167.879 236.5 155.205 231.258 144.727 220.773C134.25 210.288 129.007 197.614 129 182.75C128.993 167.886 134.235 155.212 144.727 144.727C155.219 134.242 167.894 129 182.75 129C197.606 129 210.284 134.242 220.784 144.727C231.283 155.212 236.522 167.886 236.5 182.75C236.478 197.614 231.236 210.291 220.773 220.783C210.309 231.275 197.635 236.514 182.75 236.5ZM129 236.5C104.096 230.229 83.5347 215.939 67.3165 193.629C51.0983 171.319 42.9928 146.551 43 119.325V53.75L129 21.5L215 53.75V114.756C210.342 112.427 205.099 110.635 199.273 109.381C193.446 108.127 187.939 107.5 182.75 107.5C161.967 107.5 144.229 114.846 129.538 129.537C114.846 144.229 107.5 161.967 107.5 182.75C107.5 193.858 109.607 203.892 113.821 212.85C118.035 221.808 123.363 229.602 129.806 236.231C129.627 236.231 129.495 236.278 129.409 236.371C129.323 236.464 129.186 236.507 129 236.5ZM182.75 182.75C187.229 182.75 191.038 181.184 194.177 178.052C197.316 174.92 198.882 171.111 198.875 166.625C198.868 162.139 197.302 158.333 194.177 155.208C191.053 152.084 187.244 150.514 182.75 150.5C178.256 150.486 174.451 152.055 171.333 155.208C168.216 158.362 166.647 162.167 166.625 166.625C166.603 171.083 168.173 174.892 171.333 178.052C174.494 181.213 178.299 182.779 182.75 182.75ZM182.75 215C188.304 215 193.41 213.699 198.069 211.098C202.727 208.496 206.49 205.049 209.356 200.756C205.415 198.427 201.204 196.635 196.725 195.381C192.246 194.127 187.587 193.5 182.75 193.5C177.913 193.5 173.254 194.127 168.775 195.381C164.296 196.635 160.085 198.427 156.144 200.756C159.01 205.056 162.773 208.507 167.431 211.108C172.09 213.71 177.196 215.007 182.75 215Z" fill="black"/>
</svg>
