<svg width="334" height="334" viewBox="0 0 334 334" fill="none" xmlns="http://www.w3.org/2000/svg">
<path d="M245.281 73.0625C249.434 73.0625 253.416 74.712 256.352 77.6481C259.288 80.5842 260.938 84.5665 260.938 88.7188C260.938 92.871 259.288 96.8533 256.352 99.7894C253.416 102.726 249.434 104.375 245.281 104.375H88.7188C84.5665 104.375 80.5842 102.726 77.6481 99.7894C74.712 96.8533 73.0625 92.871 73.0625 88.7188C73.0625 84.5665 74.712 80.5842 77.6481 77.6481C80.5842 74.712 84.5665 73.0625 88.7188 73.0625H149.016C147.151 69.8983 146.154 66.2979 146.125 62.625C146.125 57.0886 148.324 51.779 152.239 47.8641C156.154 43.9493 161.464 41.75 167 41.75C172.536 41.75 177.846 43.9493 181.761 47.8641C185.676 51.779 187.875 57.0886 187.875 62.625C187.875 66.4451 186.779 69.9834 184.984 73.0625H245.281ZM271.375 125.25C276.911 125.25 282.221 127.449 286.136 131.364C290.051 135.279 292.25 140.589 292.25 146.125C292.25 151.661 290.051 156.971 286.136 160.886C282.221 164.801 276.911 167 271.375 167H260.938V270.112C260.939 273.02 260.367 275.899 259.255 278.586C258.143 281.272 256.512 283.713 254.457 285.769C252.401 287.825 249.96 289.456 247.273 290.568C244.586 291.68 241.707 292.251 238.8 292.25H95.2004C92.2929 292.251 89.4135 291.68 86.727 290.568C84.0405 289.456 81.5995 287.825 79.5435 285.769C77.4875 283.713 75.8569 281.272 74.7449 278.586C73.6328 275.899 73.0611 273.02 73.0625 270.112V167H62.625C57.0886 167 51.779 164.801 47.8641 160.886C43.9493 156.971 41.75 151.661 41.75 146.125C41.75 140.589 43.9493 135.279 47.8641 131.364C51.779 127.449 57.0886 125.25 62.625 125.25H271.375Z" fill="black"/>
</svg>
