<svg width="199" height="200" viewBox="0 0 199 200" fill="none" xmlns="http://www.w3.org/2000/svg">
<path d="M170.94 107.26C170.966 106.952 170.92 106.643 170.806 106.356C170.691 106.07 170.511 105.814 170.28 105.61L165 99.9996C164.655 99.7792 164.254 99.6621 163.845 99.6621C163.436 99.6621 163.035 99.7792 162.69 99.9996C155.64 102.966 148.064 104.481 140.415 104.455C134.303 104.478 128.228 103.503 122.43 101.567C121.937 101.401 121.399 101.428 120.925 101.643C120.45 101.857 120.074 102.242 119.872 102.722C117.722 107.571 114.949 112.12 111.622 116.252C111.5 116.539 111.437 116.848 111.437 117.16C111.437 117.472 111.5 117.78 111.622 118.067C112.183 120.089 112.872 122.073 113.685 124.007C113.913 124.503 114.328 124.889 114.84 125.08C134.97 132.505 161.122 144.797 161.122 182.83V195.205C161.156 195.809 161.156 196.415 161.122 197.02C161.081 197.314 161.104 197.614 161.189 197.899C161.275 198.184 161.421 198.447 161.617 198.67C162.032 199.088 162.596 199.326 163.185 199.33H193.875C194.969 199.33 196.018 198.895 196.792 198.121C197.565 197.348 198 196.299 198 195.205V188.192C198 162.617 180.18 156.265 164.422 150.655L160.38 149.17C159.868 148.979 159.453 148.593 159.225 148.097C158.975 147.569 158.781 147.016 158.647 146.447C157.91 143.077 157.91 139.587 158.647 136.217C166.092 128.356 170.456 118.076 170.94 107.26Z" fill="black"/>
<path d="M82.5 46.3757C82.5001 40.6148 83.3621 34.8864 85.0575 29.3807C85.2687 28.8509 85.2687 28.2604 85.0575 27.7307C84.7231 27.2439 84.2256 26.8928 83.655 26.7407C80.5661 26.0651 77.4119 25.7331 74.25 25.7507C54.6975 25.7507 35.0625 38.6207 35.0625 67.0007C35.0625 101.321 49.005 109.571 50.655 113.036C52.3094 118.135 52.481 123.6 51.15 128.793C50.5725 130.938 49.7475 131.846 49.17 132.093L42.9 134.321C22.77 141.746 0 149.501 0 182.501V194.876C0 195.97 0.434597 197.019 1.20818 197.792C1.98177 198.566 3.03098 199.001 4.125 199.001H144.375C145.469 199.001 146.518 198.566 147.292 197.792C148.065 197.019 148.5 195.97 148.5 194.876V182.501C148.5 149.913 125.647 141.828 105.435 134.568L99 132.423C98.4225 132.423 97.5975 131.268 97.02 129.123C95.5805 123.969 95.5805 118.52 97.02 113.366C101.601 108.539 105.313 102.957 107.993 96.8657C108.161 96.4163 108.179 95.9246 108.046 95.4637C107.912 95.0029 107.633 94.5976 107.25 94.3082C99.5347 88.9366 93.2475 81.7626 88.9343 73.4094C84.6211 65.0562 82.4124 55.7763 82.5 46.3757Z" fill="black"/>
<path d="M165 84.6559C165.37 84.3813 165.818 84.233 166.279 84.233C166.739 84.233 167.188 84.3813 167.558 84.6559L184.058 101.156C184.824 101.929 185.737 102.543 186.742 102.962C187.748 103.381 188.826 103.596 189.915 103.596C191.004 103.596 192.082 103.381 193.088 102.962C194.093 102.543 195.006 101.929 195.773 101.156C196.546 100.389 197.16 99.4765 197.578 98.4711C197.997 97.4658 198.213 96.3875 198.213 95.2984C198.213 94.2093 197.997 93.131 197.578 92.1256C197.16 91.1203 196.546 90.2078 195.773 89.4409L179.273 72.9409C178.998 72.5711 178.85 72.1227 178.85 71.6621C178.85 71.2015 178.998 70.7532 179.273 70.3834C185.208 60.9389 187.457 49.6388 185.589 38.6413C183.722 27.6438 177.869 17.7197 169.148 10.7642C160.427 3.80878 149.449 0.309479 138.312 0.934644C127.175 1.55981 116.658 6.26563 108.77 14.1534C100.882 22.0411 96.1764 32.5579 95.5513 43.6953C94.9261 54.8327 98.4254 65.8102 105.381 74.5311C112.336 83.252 122.26 89.1052 133.258 90.9728C144.255 92.8405 155.555 90.5917 165 84.6559ZM111.375 46.3759C111.375 40.6649 113.068 35.0822 116.241 30.3338C119.414 25.5853 123.924 21.8843 129.2 19.6988C134.476 17.5134 140.282 16.9415 145.883 18.0557C151.484 19.1698 156.629 21.9199 160.668 25.9582C164.706 29.9964 167.456 35.1414 168.57 40.7426C169.684 46.3438 169.113 52.1496 166.927 57.4259C164.742 62.7021 161.041 67.2117 156.292 70.3846C151.544 73.5574 145.961 75.2509 140.25 75.2509C132.592 75.2509 125.247 72.2087 119.832 66.7936C114.417 61.3785 111.375 54.034 111.375 46.3759Z" fill="black"/>
</svg>
