<svg width="262" height="262" viewBox="0 0 262 262" fill="none" xmlns="http://www.w3.org/2000/svg">
<path fill-rule="evenodd" clip-rule="evenodd" d="M196.5 32.75C204.854 32.7495 212.892 35.9412 218.969 41.672C225.047 47.4028 228.705 55.2395 229.195 63.5787L229.25 65.5V218.333C229.249 220.151 228.795 221.939 227.928 223.537C227.062 225.134 225.81 226.49 224.286 227.481C222.763 228.472 221.016 229.067 219.205 229.212C217.393 229.357 215.574 229.047 213.912 228.311L212.602 227.634L182.854 209.316L153.095 227.634C151.571 228.571 149.84 229.118 148.054 229.229C146.269 229.339 144.484 229.009 142.856 228.268L141.655 227.634L111.896 209.316L82.137 227.634C80.5773 228.594 78.8012 229.147 76.9722 229.24C75.1431 229.334 73.32 228.965 71.6705 228.17C70.0211 227.374 68.5984 226.176 67.5334 224.686C66.4685 223.196 65.7955 221.462 65.5764 219.643L65.5 218.333V152.833H43.6667C40.9928 152.833 38.4121 151.851 36.4139 150.075C34.4158 148.298 33.1393 145.849 32.8264 143.194L32.75 141.917V60.0417C32.7489 53.1127 35.3835 46.4427 40.1192 41.3846C44.8549 36.3265 51.3373 33.2591 58.2513 32.8046L60.0417 32.75H196.5ZM163.75 131H120.083C117.188 131 114.411 132.15 112.364 134.197C110.317 136.245 109.167 139.021 109.167 141.917C109.167 144.812 110.317 147.589 112.364 149.636C114.411 151.683 117.188 152.833 120.083 152.833H163.75C166.645 152.833 169.422 151.683 171.469 149.636C173.517 147.589 174.667 144.812 174.667 141.917C174.667 139.021 173.517 136.245 171.469 134.197C169.422 132.15 166.645 131 163.75 131ZM60.0417 54.5833C58.594 54.5833 57.2057 55.1584 56.182 56.182C55.1584 57.2057 54.5833 58.594 54.5833 60.0417V131H65.5V60.0417C65.5 58.594 64.9249 57.2057 63.9013 56.182C62.8777 55.1584 61.4893 54.5833 60.0417 54.5833ZM174.667 87.3333H120.083C117.301 87.3364 114.625 88.4018 112.601 90.3119C110.578 92.222 109.361 94.8326 109.198 97.6102C109.034 100.388 109.938 103.123 111.724 105.257C113.51 107.39 116.043 108.762 118.806 109.09L120.083 109.167H174.667C177.449 109.164 180.125 108.098 182.149 106.188C184.172 104.278 185.389 101.667 185.552 98.8898C185.716 96.1121 184.812 93.377 183.026 91.2433C181.24 89.1096 178.707 87.7384 175.944 87.4098L174.667 87.3333Z" fill="black"/>
</svg>
