<svg width="415" height="415" viewBox="0 0 415 415" fill="none" xmlns="http://www.w3.org/2000/svg">
<path d="M39.5806 224.757C37.2174 224.757 35.2404 223.927 33.6496 222.267C32.0588 220.607 31.2633 218.549 31.2633 216.094C31.2633 213.638 32.0933 211.586 33.7533 209.938C35.4133 208.289 37.4653 207.465 39.9092 207.465H100.084C102.54 207.465 104.597 208.295 106.257 209.955C107.917 211.615 108.747 213.673 108.747 216.128C108.747 218.584 107.917 220.636 106.257 222.284C104.597 223.933 102.545 224.757 100.101 224.757H39.5806ZM129.722 328.541C117.733 328.541 107.525 324.334 99.0985 315.918C90.6717 307.538 86.4583 297.336 86.4583 285.312H62.5267C58.6649 285.312 55.5812 283.871 53.2756 280.989C50.9701 278.107 50.2035 274.816 50.9758 271.116L56.5265 250.694H99.6692C109.329 250.694 117.497 247.351 124.171 240.665C130.846 233.979 134.183 225.794 134.183 216.111C134.183 210.808 133.031 205.909 130.725 201.413C128.419 196.917 125.215 193.194 121.111 190.243H152.495C162.179 190.243 170.363 186.9 177.049 180.213C183.735 173.527 187.079 165.348 187.079 155.677C187.079 146.005 183.735 137.82 177.049 131.122C170.363 124.425 162.179 121.076 152.495 121.076H92.1127L97.3694 102.055C98.4299 97.5247 100.678 93.7954 104.113 90.8674C107.514 87.9278 111.623 86.458 116.442 86.458H290.293C294.719 86.458 298.333 88.2333 301.134 91.7838C303.924 95.3344 304.817 99.2884 303.815 103.646L293.924 146.979H315.901C320.328 146.979 324.518 147.97 328.472 149.953C332.438 151.924 335.7 154.656 338.26 158.149L369.333 199.615C371.846 202.981 373.477 206.491 374.226 210.145C374.987 213.788 375.045 217.615 374.399 221.627L364.059 274.142C363.413 277.508 361.776 280.211 359.148 282.252C356.52 284.292 353.534 285.312 350.191 285.312H341.839C341.839 297.29 337.643 307.492 329.251 315.918C320.858 324.345 310.656 328.553 298.644 328.541C286.632 328.53 276.425 324.322 268.021 315.918C259.606 307.526 255.398 297.324 255.398 285.312H172.917C172.917 297.29 168.721 307.492 160.328 315.918C151.936 324.345 141.734 328.553 129.722 328.541ZM74.1812 164.305C71.7258 164.305 69.6681 163.475 68.0081 161.815C66.3481 160.155 65.5181 158.097 65.5181 155.642C65.5181 153.187 66.3481 151.135 68.0081 149.486C69.6681 147.838 71.7201 147.013 74.164 147.013H151.976C154.432 147.013 156.49 147.843 158.15 149.503C159.798 151.163 160.622 153.221 160.622 155.677C160.622 158.132 159.798 160.184 158.15 161.832C156.501 163.481 154.443 164.305 151.976 164.305H74.1812ZM129.687 311.25C136.8 311.25 142.904 308.708 147.999 303.624C153.083 298.529 155.625 292.425 155.625 285.312C155.625 278.2 153.083 272.096 147.999 267C142.916 261.905 136.812 259.363 129.687 259.375C122.563 259.386 116.459 261.928 111.376 267C106.292 272.096 103.75 278.2 103.75 285.312C103.75 292.425 106.292 298.529 111.376 303.624C116.471 308.708 122.575 311.25 129.687 311.25ZM298.627 311.25C305.74 311.25 311.838 308.708 316.922 303.624C322.005 298.529 324.547 292.425 324.547 285.312C324.547 278.2 322.005 272.096 316.922 267C311.838 261.905 305.734 259.363 298.61 259.375C291.486 259.386 285.387 261.928 280.315 267C275.22 272.096 272.672 278.2 272.672 285.312C272.672 292.425 275.214 298.529 280.298 303.624C285.393 308.708 291.503 311.25 298.627 311.25ZM274.695 229.114H355.154L358.197 213.725L321.227 164.271H289.791L274.695 229.114Z" fill="black"/>
</svg>
