<svg width="212" height="212" viewBox="0 0 212 212" fill="none" xmlns="http://www.w3.org/2000/svg">
<path d="M159.53 203.167H174.193C181.613 203.167 187.708 197.426 188.592 190.182L203.167 44.609H159V8.83398H141.598V44.609H97.6967L100.347 65.279C115.452 69.4307 129.585 76.939 138.065 85.2423C150.785 97.7857 159.53 110.771 159.53 131.971V203.167ZM8.83334 194.334V185.501H141.598V194.334C141.598 199.104 137.623 203.167 132.5 203.167H17.6667C12.8083 203.167 8.83334 199.104 8.83334 194.334ZM141.598 132.501C141.598 61.834 8.83334 61.834 8.83334 132.501H141.598ZM8.83334 150.167H141.333V167.834H8.83334V150.167Z" fill="black"/>
</svg>
