<svg width="24" height="24" viewBox="0 0 24 24" fill="none" xmlns="http://www.w3.org/2000/svg">
<path d="M2.35667 23.3333C1.68486 23.3333 1.12437 23.1088 0.675208 22.6596C0.226041 22.2104 0.000972222 21.6494 0 20.9767V2.35667C0 1.68486 0.225069 1.12437 0.675208 0.675208C1.12535 0.226041 1.68583 0.000972222 2.35667 0H9.64833V1.45833H2.35667C2.13208 1.45833 1.92597 1.55167 1.73833 1.73833C1.55069 1.925 1.45736 2.13111 1.45833 2.35667V20.9781C1.45833 21.2017 1.55167 21.4074 1.73833 21.595C1.925 21.7826 2.13062 21.876 2.35521 21.875H20.9781C21.2017 21.875 21.4074 21.7817 21.595 21.595C21.7826 21.4083 21.876 21.2027 21.875 20.9781V13.6865H23.3333V20.9781C23.3333 21.649 23.1088 22.2094 22.6596 22.6596C22.2104 23.1097 21.6494 23.3343 20.9767 23.3333H2.35667ZM17.5 10.2083V5.83333H13.125V4.375H17.5V0H18.9583V4.375H23.3333V5.83333H18.9583V10.2083H17.5Z" fill="#FAF8F5"/>
</svg>
