<svg width="35" height="35" viewBox="0 0 35 35" fill="none" xmlns="http://www.w3.org/2000/svg">
<path d="M14.7405 17.4999L20.9326 23.6919C21.0687 23.8281 21.1416 23.9958 21.1513 24.1951C21.161 24.3924 21.0881 24.5689 20.9326 24.7244C20.777 24.88 20.6049 24.9578 20.4163 24.9578C20.2277 24.9578 20.0556 24.88 19.9001 24.7244L13.5009 18.3238C13.3735 18.1974 13.2841 18.0676 13.2326 17.9344C13.181 17.8022 13.1553 17.6574 13.1553 17.4999C13.1553 17.3424 13.181 17.1975 13.2326 17.0653C13.2841 16.933 13.3735 16.8033 13.5009 16.6759L19.9001 10.2753C20.0362 10.1392 20.2034 10.0662 20.4017 10.0565C20.6001 10.0468 20.777 10.1197 20.9326 10.2753C21.0881 10.4308 21.1659 10.6029 21.1659 10.7915C21.1659 10.9801 21.0881 11.1522 20.9326 11.3078L14.7405 17.4999Z" fill="#878787"/>
</svg>
