<svg width="45" height="45" viewBox="0 0 45 45" fill="none" xmlns="http://www.w3.org/2000/svg">
<path d="M17.625 29.6404L22.5 24.7654L27.375 29.6404L28.7025 28.3129L23.8275 23.4379L28.7025 18.5629L27.375 17.2354L22.5 22.1104L17.625 17.2354L16.2975 18.5629L21.1725 23.4379L16.2975 28.3129L17.625 29.6404ZM14.28 37.5004C13.4163 37.5004 12.6956 37.2116 12.1181 36.6341C11.5406 36.0566 11.2513 35.3354 11.25 34.4704V11.2504H9.375V9.37539H16.875V7.93164H28.125V9.37539H35.625V11.2504H33.75V34.4723C33.75 35.3348 33.4613 36.0554 32.8838 36.6341C32.3062 37.2129 31.585 37.5016 30.72 37.5004H14.28ZM31.875 11.2504H13.125V34.4723C13.125 34.7598 13.245 35.0241 13.485 35.2654C13.725 35.5066 13.9894 35.6266 14.2781 35.6254H30.7219C31.0094 35.6254 31.2738 35.5054 31.515 35.2654C31.7563 35.0254 31.8762 34.761 31.875 34.4723V11.2504Z" fill="#FAF8F5"/>
</svg>
