<svg width="35" height="36" viewBox="0 0 35 36" fill="none" xmlns="http://www.w3.org/2000/svg">
<path d="M27.7082 22.3751C28.5103 22.3751 29.1665 23.0313 29.1665 23.8334C29.1665 24.6355 28.5103 25.2917 27.7082 25.2917C26.9061 25.2917 26.2498 24.6355 26.2498 23.8334C26.2498 23.0313 26.9061 22.3751 27.7082 22.3751ZM27.7082 19.4584C25.2873 19.4584 23.3332 21.4126 23.3332 23.8334C23.3332 26.2542 25.2873 28.2084 27.7082 28.2084C30.129 28.2084 32.0832 26.2542 32.0832 23.8334C32.0832 21.4126 30.129 19.4584 27.7082 19.4584ZM14.5832 9.25008H7.2915V12.1667H14.5832V9.25008ZM24.7915 7.79175H20.4165V10.7084H24.7915V14.573L19.6873 20.9167H14.5832V13.6251H8.74984C5.52692 13.6251 2.9165 16.2355 2.9165 19.4584V23.8334H5.83317C5.83317 26.2542 7.78734 28.2084 10.2082 28.2084C12.629 28.2084 14.5832 26.2542 14.5832 23.8334H21.1457L27.7082 15.5938V10.7084C27.7082 9.93487 27.4009 9.193 26.8539 8.64602C26.3069 8.09904 25.5651 7.79175 24.7915 7.79175ZM10.2082 25.2917C9.40609 25.2917 8.74984 24.6355 8.74984 23.8334H11.6665C11.6665 24.6355 11.0103 25.2917 10.2082 25.2917Z" fill="black"/>
</svg>
