<svg width="36" height="35" viewBox="0 0 36 35" fill="none" xmlns="http://www.w3.org/2000/svg">
<path d="M0 5V6.34615H10.7692V7.69231H2.69231V9.03846H0V10.3846H9.42308V11.7308H2.69231V13.0769H0V14.4231H8.07692V15.7692H2.69231V17.1154H0V18.4615H6.73077V19.8077H2.69231V25.1923C2.69231 26 3.23077 26.5385 4.03846 26.5385H5.38462C5.65385 24.25 7.67308 22.3735 10.0962 22.3735C12.5192 22.3735 14.5385 24.1154 14.8077 26.5385H18.8462C19.6538 26.5385 20.1923 26 20.1923 25.1923V6.34615C20.1923 5.53846 19.6538 5 18.8462 5H0ZM22.8846 10.3846C22.0769 10.3846 21.5385 10.9231 21.5385 11.7308V25.1923C21.5385 25.8654 22.0769 26.5385 22.8846 26.5385C23.1538 24.25 25.1731 22.3735 27.5962 22.3735C30.0192 22.3735 32.0385 24.1154 32.3077 26.5385H33.6538C34.4615 26.5385 35 26 35 25.1923V18.4615C35 17.25 33.9056 15.7692 33.9056 15.7692L30.9615 11.7308C30.2885 10.9231 29.8846 10.3846 28.9423 10.3846H22.8846ZM25.5769 13.0769H28.8158C29.085 13.0769 29.3637 13.33 29.3637 13.33L32.1812 17.2419C32.4504 17.6458 32.729 18.0658 32.729 18.335H25.5769V13.0769ZM10.0962 24.0992C9.27136 24.1017 8.48103 24.4304 7.89769 25.0135C7.31434 25.5966 6.98534 26.3867 6.9825 27.2115C6.98499 28.0366 7.31383 28.8271 7.89721 29.4105C8.4806 29.9939 9.27113 30.3227 10.0962 30.3252C10.9212 30.3227 11.7117 29.9939 12.2951 29.4105C12.8785 28.8271 13.2073 28.0366 13.2098 27.2115C13.2073 26.3865 12.8785 25.596 12.2951 25.0126C11.7117 24.4292 10.9212 24.1017 10.0962 24.0992ZM27.5962 24.0992C26.7714 24.1017 25.981 24.4304 25.3977 25.0135C24.8143 25.5966 24.4853 26.3867 24.4825 27.2115C24.485 28.0366 24.8138 28.8271 25.3972 29.4105C25.9806 29.9939 26.7711 30.3227 27.5962 30.3252C28.4212 30.3227 29.2117 29.9939 29.7951 29.4105C30.3785 28.8271 30.7073 28.0366 30.7098 27.2115C30.7073 26.3865 30.3785 25.596 29.7951 25.0126C29.2117 24.4292 28.4212 24.1017 27.5962 24.0992Z" fill="#FFC107"/>
</svg>
