<svg width="62" height="62" viewBox="0 0 62 62" fill="none" xmlns="http://www.w3.org/2000/svg">
<path d="M56.0535 2.74561H5.57009C3.84092 2.74561 2.43915 4.14737 2.43915 5.87654V56.3599C2.43915 58.0891 3.84092 59.4908 5.57009 59.4908H56.0535C57.7826 59.4908 59.1844 58.0891 59.1844 56.3599V5.87654C59.1844 4.14737 57.7826 2.74561 56.0535 2.74561Z" fill="#3D5A98"/>
<path d="M41.5878 59.486V37.5119H48.9621L50.0648 28.9486H41.5878V23.4827C41.5878 21.0038 42.2782 19.3113 45.8311 19.3113H50.3669V11.6398C48.1705 11.4113 45.9633 11.3024 43.755 11.3137C37.2246 11.3137 32.7272 15.2933 32.7272 22.634V28.9486H25.353V37.5119H32.7272V59.486H41.5878Z" fill="white"/>
</svg>
