<svg width="35" height="35" viewBox="0 0 35 35" fill="none" xmlns="http://www.w3.org/2000/svg">
<path d="M5.8335 10.2083H29.1668M14.5835 16.0417V24.7917M20.4168 16.0417V24.7917M7.29183 10.2083L8.75016 27.7083C8.75016 28.4819 9.05745 29.2237 9.60443 29.7707C10.1514 30.3177 10.8933 30.625 11.6668 30.625H23.3335C24.107 30.625 24.8489 30.3177 25.3959 29.7707C25.9429 29.2237 26.2502 28.4819 26.2502 27.7083L27.7085 10.2083M13.1252 10.2083V5.83333C13.1252 5.44656 13.2788 5.07563 13.5523 4.80214C13.8258 4.52865 14.1967 4.375 14.5835 4.375H20.4168C20.8036 4.375 21.1745 4.52865 21.448 4.80214C21.7215 5.07563 21.8752 5.44656 21.8752 5.83333V10.2083" stroke="#262626" stroke-width="2.91667" stroke-linecap="round" stroke-linejoin="round"/>
</svg>
