<svg width="36" height="35" viewBox="0 0 36 35" fill="none" xmlns="http://www.w3.org/2000/svg">
<path d="M7.94155 8.74992H28.3582C29.1603 8.74992 29.8166 8.09367 29.8166 7.29159C29.8166 6.4895 29.1603 5.83325 28.3582 5.83325H7.94155C7.13947 5.83325 6.48322 6.4895 6.48322 7.29159C6.48322 8.09367 7.13947 8.74992 7.94155 8.74992ZM30.0499 11.3749C29.9186 10.7041 29.3207 10.2083 28.6207 10.2083H7.67905C6.97905 10.2083 6.38114 10.7041 6.24989 11.3749L4.79155 18.6666C4.61655 19.5708 5.30197 20.4166 6.22072 20.4166H6.48322V27.7083C6.48322 28.5103 7.13947 29.1666 7.94155 29.1666H19.6082C20.4103 29.1666 21.0666 28.5103 21.0666 27.7083V20.4166H26.8999V27.7083C26.8999 28.5103 27.5561 29.1666 28.3582 29.1666C29.1603 29.1666 29.8166 28.5103 29.8166 27.7083V20.4166H30.0791C30.9978 20.4166 31.6832 19.5708 31.5082 18.6666L30.0499 11.3749ZM18.1499 26.2499H9.39989V20.4166H18.1499V26.2499Z" fill="black"/>
</svg>
