<svg width="36" height="35" viewBox="0 0 36 35" fill="none" xmlns="http://www.w3.org/2000/svg">
<path d="M17.7349 3.28125C9.85986 3.28125 3.51611 9.625 3.51611 17.5C3.51611 25.375 9.85986 31.7188 17.7349 31.7188C25.6099 31.7188 31.9536 25.375 31.9536 17.5C31.9536 15.9688 31.748 14.4441 31.2011 13.0222L29.4249 14.7656C29.6436 15.6406 29.7672 16.5156 29.7672 17.5C29.7672 24.1719 24.4078 29.5312 17.736 29.5312C11.0641 29.5312 5.70361 24.1719 5.70361 17.5C5.70361 10.8281 11.063 5.46875 17.7349 5.46875C21.0161 5.46875 23.9627 6.77469 26.0408 8.85281L27.5786 7.315C25.063 4.79938 21.563 3.28125 17.7349 3.28125ZM30.0724 7.9625L17.7349 20.3033L13.0536 15.622L11.4786 17.1938L16.9474 22.6625L17.7349 23.4128L18.5224 22.6614L31.6474 9.53641L30.0724 7.96141V7.9625Z" fill="#4CAF50"/>
</svg>
