<svg width="78" height="78" viewBox="0 0 78 78" fill="none" xmlns="http://www.w3.org/2000/svg">
<path d="M67.925 6.5H10.075C9.12685 6.5 8.21754 6.87665 7.54709 7.54709C6.87665 8.21754 6.5 9.12685 6.5 10.075V67.925C6.5 68.8731 6.87665 69.7825 7.54709 70.4529C8.21754 71.1234 9.12685 71.5 10.075 71.5H41.21V46.3125H32.76V36.5625H41.21V29.25C41.035 27.5332 41.2376 25.7989 41.8038 24.1687C42.37 22.5386 43.286 21.052 44.4875 19.8133C45.689 18.5747 47.147 17.6138 48.7592 16.9983C50.3714 16.3827 52.0987 16.1273 53.82 16.25C56.3496 16.2325 58.8781 16.3628 61.3925 16.64V25.415H56.225C52.13 25.415 51.35 27.365 51.35 30.1925V36.465H61.1L59.8325 46.215H51.35V71.5H67.925C68.3945 71.5 68.8594 71.4075 69.2931 71.2279C69.7268 71.0482 70.1209 70.7849 70.4529 70.4529C70.7849 70.1209 71.0482 69.7268 71.2279 69.2931C71.4075 68.8594 71.5 68.3945 71.5 67.925V10.075C71.5 9.60552 71.4075 9.14065 71.2279 8.70691C71.0482 8.27317 70.7849 7.87906 70.4529 7.54709C70.1209 7.21512 69.7268 6.95179 69.2931 6.77213C68.8594 6.59247 68.3945 6.5 67.925 6.5Z" fill="#FAF8F5"/>
</svg>
