<svg width="62" height="62" viewBox="0 0 62 62" fill="none" xmlns="http://www.w3.org/2000/svg">
<path d="M56.1343 26.1076H54.0745V26.0014H31.0599V36.2301H45.5118C43.4034 42.1845 37.738 46.4588 31.0599 46.4588C22.5868 46.4588 15.7169 39.589 15.7169 31.1158C15.7169 22.6426 22.5868 15.7728 31.0599 15.7728C34.9711 15.7728 38.5294 17.2482 41.2388 19.6584L48.4717 12.4254C43.9046 8.169 37.7955 5.54407 31.0599 5.54407C16.938 5.54407 5.48822 16.9938 5.48822 31.1158C5.48822 45.2378 16.938 56.6875 31.0599 56.6875C45.1819 56.6875 56.6317 45.2378 56.6317 31.1158C56.6317 29.4012 56.4552 27.7275 56.1343 26.1076Z" fill="#FFC107"/>
<path d="M8.43671 19.2134L16.8383 25.3749C19.1116 19.7466 24.6172 15.7728 31.06 15.7728C34.9712 15.7728 38.5295 17.2482 41.2388 19.6584L48.4718 12.4254C43.9047 8.169 37.7956 5.54407 31.06 5.54407C21.2379 5.54407 12.72 11.0893 8.43671 19.2134Z" fill="#FF3D00"/>
<path d="M31.0598 56.6875C37.665 56.6875 43.6667 54.1598 48.2044 50.0491L40.29 43.3519C37.6367 45.3708 34.3939 46.4624 31.0598 46.4588C24.4086 46.4588 18.7611 42.2178 16.6336 36.2992L8.29462 42.7241C12.5267 51.0055 21.1214 56.6875 31.0598 56.6875Z" fill="#4CAF50"/>
<path d="M56.1342 26.1076H54.0744V26.0015H31.0599V36.2302H45.5117C44.5032 39.064 42.6865 41.5403 40.2862 43.3532L40.29 43.3506L48.2044 50.0478C47.6444 50.5567 56.6316 43.9017 56.6316 31.1158C56.6316 29.4012 56.4551 27.7276 56.1342 26.1076Z" fill="#1976D2"/>
</svg>
