<svg width="78" height="78" viewBox="0 0 78 78" fill="none" xmlns="http://www.w3.org/2000/svg">
<path d="M65 58.5H58.5V30.0625L39 42.25L19.5 30.0625V58.5H13V19.5H16.9L39 33.3125L61.1 19.5H65M65 13H13C9.3925 13 6.5 15.8925 6.5 19.5V58.5C6.5 60.2239 7.18482 61.8772 8.40381 63.0962C9.62279 64.3152 11.2761 65 13 65H65C66.7239 65 68.3772 64.3152 69.5962 63.0962C70.8152 61.8772 71.5 60.2239 71.5 58.5V19.5C71.5 17.7761 70.8152 16.1228 69.5962 14.9038C68.3772 13.6848 66.7239 13 65 13Z" fill="#FAF8F5"/>
</svg>
