<svg width="40" height="39" viewBox="0 0 40 39" fill="none" xmlns="http://www.w3.org/2000/svg">
<path d="M20.2283 11.543C24.6876 11.543 28.3067 15.1621 28.3067 19.6214C28.3067 20.6716 28.0967 21.6572 27.7251 22.5781L32.4429 27.2959C34.8826 25.2602 36.8053 22.6266 37.9847 19.6214C35.1896 12.5285 28.2906 7.50375 20.2122 7.50375C17.9502 7.50375 15.7852 7.90767 13.7817 8.63473L17.2716 12.1246C18.1925 11.753 19.1781 11.543 20.2283 11.543ZM4.07144 7.13214L7.7552 10.8159L8.49842 11.5591C5.79767 13.6561 3.71056 16.4407 2.45575 19.6214C5.25089 26.7143 12.1499 31.7391 20.2283 31.7391C22.7326 31.7391 25.1238 31.2544 27.305 30.3819L27.9836 31.0605L32.7176 35.7783L34.7695 33.7264L6.12336 5.08022L4.07144 7.13214ZM13.0062 16.0669L15.5105 18.5712C15.4297 18.9105 15.3812 19.266 15.3812 19.6214C15.3812 22.3034 17.5463 24.4685 20.2283 24.4685C20.5838 24.4685 20.9392 24.42 21.2785 24.3392L23.7828 26.8435C22.7003 27.3767 21.5047 27.6998 20.2283 27.6998C15.769 27.6998 12.1499 24.0807 12.1499 19.6214C12.1499 18.345 12.473 17.1494 13.0062 16.0669ZM19.9698 14.8067L25.0592 19.8961L25.0915 19.6376C25.0915 16.9555 22.9265 14.7905 20.2445 14.7905L19.9698 14.8067Z" fill="#878787"/>
</svg>
