<svg width="44" height="44" viewBox="0 0 44 44" fill="none" xmlns="http://www.w3.org/2000/svg">
<path d="M21.8521 8.28825C12.902 8.28825 5.2586 13.8552 2.16187 21.7134C5.2586 29.5716 12.902 35.1385 21.8521 35.1385C30.8022 35.1385 38.4456 29.5716 41.5423 21.7134C38.4456 13.8552 30.8022 8.28825 21.8521 8.28825ZM21.8521 30.6635C16.9116 30.6635 12.902 26.6539 12.902 21.7134C12.902 16.7729 16.9116 12.7633 21.8521 12.7633C26.7925 12.7633 30.8022 16.7729 30.8022 21.7134C30.8022 26.6539 26.7925 30.6635 21.8521 30.6635ZM21.8521 16.3433C18.8807 16.3433 16.482 18.742 16.482 21.7134C16.482 24.6848 18.8807 27.0835 21.8521 27.0835C24.8235 27.0835 27.2222 24.6848 27.2222 21.7134C27.2222 18.742 24.8235 16.3433 21.8521 16.3433Z" fill="#878787"/>
</svg>
