<svg width="35" height="35" viewBox="0 0 35 35" fill="none" xmlns="http://www.w3.org/2000/svg">
<path d="M17.5 3.28125C9.625 3.28125 3.28125 9.625 3.28125 17.5C3.28125 25.375 9.625 31.7188 17.5 31.7188C25.375 31.7188 31.7188 25.375 31.7188 17.5C31.7188 15.9688 31.5131 14.4441 30.9662 13.0222L29.19 14.7656C29.4088 15.6406 29.5323 16.5156 29.5323 17.5C29.5323 24.1719 24.173 29.5312 17.5011 29.5312C10.8292 29.5312 5.46875 24.1719 5.46875 17.5C5.46875 10.8281 10.8281 5.46875 17.5 5.46875C20.7812 5.46875 23.7278 6.77469 25.8059 8.85281L27.3438 7.315C24.8281 4.79938 21.3281 3.28125 17.5 3.28125ZM29.8375 7.9625L17.5 20.3033L12.8188 15.622L11.2437 17.1938L16.7125 22.6625L17.5 23.4128L18.2875 22.6614L31.4125 9.53641L29.8375 7.96141V7.9625Z" fill="#4CAF50"/>
</svg>
