<svg width="395" height="395" viewBox="0 0 395 395" fill="none" xmlns="http://www.w3.org/2000/svg">
<path d="M66.25 306.875C66.25 263.125 153.75 239.062 197.5 239.062C241.25 239.062 328.75 263.125 328.75 306.875V328.75H66.25M263.125 131.875C263.125 149.28 256.211 165.972 243.904 178.279C231.597 190.586 214.905 197.5 197.5 197.5C180.095 197.5 163.403 190.586 151.096 178.279C138.789 165.972 131.875 149.28 131.875 131.875C131.875 114.47 138.789 97.7782 151.096 85.4711C163.403 73.164 180.095 66.25 197.5 66.25C214.905 66.25 231.597 73.164 243.904 85.4711C256.211 97.7782 263.125 114.47 263.125 131.875ZM0.625 44.375V350.625C0.625 362.228 5.23436 373.356 13.4391 381.561C21.6438 389.766 32.7718 394.375 44.375 394.375H350.625C362.228 394.375 373.356 389.766 381.561 381.561C389.766 373.356 394.375 362.228 394.375 350.625V44.375C394.375 32.7718 389.766 21.6438 381.561 13.4391C373.356 5.23436 362.228 0.625 350.625 0.625H44.375C32.7718 0.625 21.6438 5.23436 13.4391 13.4391C5.23436 21.6438 0.625 32.7718 0.625 44.375Z" fill="#D9D9D9" fill-opacity="0.55"/>
</svg>
