<svg width="78" height="78" viewBox="0 0 78 78" fill="none" xmlns="http://www.w3.org/2000/svg">
<path d="M26 39C26 35.5522 27.3696 32.2456 29.8076 29.8076C32.2456 27.3696 35.5522 26 39 26C42.4478 26 45.7544 27.3696 48.1924 29.8076C50.6304 32.2456 52 35.5522 52 39C52 42.4478 50.6304 45.7544 48.1924 48.1924C45.7544 50.6304 42.4478 52 39 52C35.5522 52 32.2456 50.6304 29.8076 48.1924C27.3696 45.7544 26 42.4478 26 39Z" fill="#FAF8F5"/>
<path d="M39.1625 3.25C45.1003 3.25 49.777 3.25 53.5275 3.59125C57.356 3.93575 60.5345 4.65725 63.375 6.2985C66.8332 8.29515 69.7048 11.1668 71.7015 14.625C73.3428 17.4655 74.0643 20.644 74.4088 24.4725C74.75 28.223 74.75 32.8997 74.75 38.8375V39.1625C74.75 45.1003 74.75 49.777 74.4088 53.5275C74.0643 57.356 73.3428 60.5345 71.7015 63.375C69.7048 66.8332 66.8332 69.7048 63.375 71.7015C60.5345 73.3428 57.356 74.0643 53.5275 74.4088C49.777 74.75 45.1003 74.75 39.1625 74.75H38.8375C32.8997 74.75 28.223 74.75 24.4725 74.4088C20.644 74.0643 17.4655 73.3428 14.625 71.7015C11.1668 69.7048 8.29515 66.8332 6.2985 63.375C4.65725 60.5345 3.93575 57.356 3.59125 53.5275C3.25 49.777 3.25 45.1003 3.25 39.1625V38.8375C3.25 32.8997 3.25 28.223 3.59125 24.4725C3.93575 20.644 4.65725 17.4655 6.2985 14.625C8.29515 11.1668 11.1668 8.29515 14.625 6.2985C17.4655 4.65725 20.644 3.93575 24.4725 3.59125C28.223 3.25 32.8997 3.25 38.8375 3.25H39.1625ZM59.3125 15.4375C58.4505 15.4375 57.6239 15.7799 57.0144 16.3894C56.4049 16.9989 56.0625 17.8255 56.0625 18.6875V18.7005C56.0625 19.5625 56.4049 20.3891 57.0144 20.9986C57.6239 21.6081 58.4505 21.9505 59.3125 21.9505H59.3255C60.1875 21.9505 61.0141 21.6081 61.6236 20.9986C62.2331 20.3891 62.5755 19.5625 62.5755 18.7005V18.6875C62.5755 17.8255 62.2331 16.9989 61.6236 16.3894C61.0141 15.7799 60.1875 15.4375 59.3255 15.4375H59.3125ZM39 19.5C33.8283 19.5 28.8684 21.5545 25.2114 25.2114C21.5545 28.8684 19.5 33.8283 19.5 39C19.5 44.1717 21.5545 49.1316 25.2114 52.7886C28.8684 56.4455 33.8283 58.5 39 58.5C44.1717 58.5 49.1316 56.4455 52.7886 52.7886C56.4455 49.1316 58.5 44.1717 58.5 39C58.5 33.8283 56.4455 28.8684 52.7886 25.2114C49.1316 21.5545 44.1717 19.5 39 19.5Z" fill="#FAF8F5"/>
</svg>
