<svg width="42" height="42" viewBox="0 0 42 42" fill="none" xmlns="http://www.w3.org/2000/svg">
<path d="M7.00646 35.9935C5.0485 34.1024 3.48676 31.8403 2.41238 29.3392C1.33799 26.8382 0.772474 24.1482 0.748821 21.4262C0.725168 18.7042 1.24385 16.0048 2.27461 13.4854C3.30537 10.966 4.82756 8.67716 6.75236 6.75236C8.67716 4.82756 10.966 3.30537 13.4854 2.27461C16.0048 1.24385 18.7042 0.725168 21.4262 0.748821C24.1482 0.772474 26.8382 1.33799 29.3392 2.41238C31.8403 3.48676 34.1024 5.0485 35.9935 7.00646C39.7277 10.8728 41.794 16.0511 41.7473 21.4262C41.7006 26.8012 39.5446 31.9429 35.7437 35.7437C31.9429 39.5446 26.8012 41.7006 21.4262 41.7473C16.0511 41.794 10.8728 39.7277 7.00646 35.9935ZM33.103 33.103C36.1803 30.0256 37.9091 25.8519 37.9091 21.5C37.9091 17.148 36.1803 12.9743 33.103 9.89695C30.0256 6.81965 25.8519 5.09084 21.5 5.09084C17.148 5.09084 12.9743 6.81965 9.89695 9.89695C6.81965 12.9743 5.09084 17.148 5.09084 21.5C5.09084 25.8519 6.81965 30.0256 9.89695 33.103C12.9743 36.1803 17.148 37.9091 21.5 37.9091C25.8519 37.9091 30.0256 36.1803 33.103 33.103ZM19.45 11.25H23.55V23.55H19.45V11.25ZM19.45 27.65H23.55V31.75H19.45V27.65Z" fill="#878787"/>
</svg>
