<svg width="35" height="35" viewBox="0 0 35 35" fill="none" xmlns="http://www.w3.org/2000/svg">
<path d="M8.18967 29.1663C7.5412 29.1663 6.98655 28.9354 6.52572 28.4736C6.06488 28.0118 5.83398 27.4581 5.83301 26.8126V8.18822C5.83301 7.54072 6.06391 6.98655 6.52572 6.52572C6.98752 6.06488 7.54169 5.83398 8.18822 5.83301H26.8111C27.4586 5.83301 28.0128 6.06391 28.4736 6.52572C28.9345 6.98752 29.1654 7.54169 29.1663 8.18822V26.8111C29.1663 27.4586 28.9354 28.0128 28.4736 28.4736C28.0118 28.9345 27.4577 29.1654 26.8111 29.1663H8.18967ZM8.18967 27.708H26.8111C27.0727 27.708 27.2875 27.6239 27.4557 27.4557C27.6239 27.2875 27.708 27.0727 27.708 26.8111V10.208H7.29134V26.8111C7.29134 27.0727 7.37544 27.2875 7.54363 27.4557C7.71183 27.6239 7.92717 27.708 8.18967 27.708ZM17.4997 23.333C15.9179 23.333 14.4926 22.9276 13.2238 22.1168C11.9551 21.3069 10.9965 20.254 10.348 18.958C10.9965 17.662 11.9551 16.6091 13.2238 15.7993C14.4926 14.9884 15.9179 14.583 17.4997 14.583C19.0815 14.583 20.5068 14.9884 21.7755 15.7993C23.0443 16.6101 24.0029 17.663 24.6513 18.958C24.0029 20.254 23.0443 21.3069 21.7755 22.1168C20.5068 22.9276 19.0815 23.333 17.4997 23.333ZM17.4997 22.0424C18.6556 22.0424 19.7319 21.7721 20.7284 21.2316C21.725 20.691 22.5669 19.9331 23.2543 18.958C22.5669 17.9838 21.725 17.226 20.7284 16.6845C19.7319 16.1429 18.6556 15.8727 17.4997 15.8736C16.3437 15.8746 15.2675 16.1449 14.2709 16.6845C13.2744 17.224 12.4329 17.9819 11.7466 18.958C12.4339 19.9322 13.2759 20.69 14.2724 21.2316C15.2689 21.7731 16.3452 22.0438 17.5011 22.0438M17.5084 20.5855C17.9615 20.5855 18.3445 20.4265 18.6576 20.1086C18.9716 19.7907 19.1286 19.4052 19.1286 18.9522C19.1286 18.4981 18.9697 18.1141 18.6518 17.8001C18.3338 17.488 17.9484 17.332 17.4953 17.332C17.0413 17.332 16.6572 17.4904 16.3432 17.8074C16.0311 18.1253 15.8751 18.5108 15.8751 18.9638C15.8751 19.4179 16.0336 19.8019 16.3505 20.1159C16.6684 20.429 17.0554 20.5855 17.5084 20.5855Z" fill="#0A76E1"/>
</svg>
