<svg width="36" height="35" viewBox="0 0 36 35" fill="none" xmlns="http://www.w3.org/2000/svg">
<path d="M18.1497 16.7709C17.1828 16.7709 16.2555 16.3868 15.5717 15.7031C14.888 15.0193 14.5039 14.092 14.5039 13.1251C14.5039 12.1581 14.888 11.2308 15.5717 10.5471C16.2555 9.86336 17.1828 9.47925 18.1497 9.47925C19.1167 9.47925 20.044 9.86336 20.7277 10.5471C21.4115 11.2308 21.7956 12.1581 21.7956 13.1251C21.7956 13.6039 21.7013 14.0779 21.5181 14.5203C21.3348 14.9626 21.0663 15.3645 20.7277 15.7031C20.3892 16.0416 19.9873 16.3102 19.5449 16.4934C19.1026 16.6766 18.6285 16.7709 18.1497 16.7709ZM18.1497 2.91675C15.4423 2.91675 12.8458 3.99227 10.9314 5.9067C9.01692 7.82113 7.94141 10.4177 7.94141 13.1251C7.94141 20.7813 18.1497 32.0834 18.1497 32.0834C18.1497 32.0834 28.3581 20.7813 28.3581 13.1251C28.3581 10.4177 27.2826 7.82113 25.3681 5.9067C23.4537 3.99227 20.8572 2.91675 18.1497 2.91675Z" fill="#262626"/>
</svg>
