<svg xmlns="http://www.w3.org/2000/svg" xmlns:xlink="http://www.w3.org/1999/xlink" width="92" zoomAndPan="magnify" viewBox="0 0 69 98.999996" height="132" preserveAspectRatio="xMidYMid meet" version="1.0"><defs><clipPath id="984ee5e4ad"><path d="M 0 0 L 68.605469 0 L 68.605469 91.925781 L 0 91.925781 Z M 0 0 " clip-rule="nonzero"/></clipPath><clipPath id="d9a433f9e6"><path d="M 9 28 L 60.78125 28 L 60.78125 81 L 9 81 Z M 9 28 " clip-rule="nonzero"/></clipPath></defs><g clip-path="url(#984ee5e4ad)"><path fill="#ffffff" d="M 0 0 L 68.605469 0 L 68.605469 91.921875 L 0 91.921875 Z M 0 0 " fill-opacity="1" fill-rule="nonzero"/></g><g clip-path="url(#d9a433f9e6)"><path fill="#d93f21" d="M 34.875 28.855469 C 34.101562 28.855469 33.332031 28.890625 32.5625 28.957031 C 31.796875 29.027344 31.03125 29.128906 30.273438 29.269531 C 29.511719 29.40625 28.761719 29.578125 28.019531 29.78125 C 27.273438 29.984375 26.539062 30.222656 25.816406 30.492188 C 25.09375 30.765625 24.386719 31.066406 23.691406 31.402344 C 22.996094 31.734375 22.316406 32.097656 21.652344 32.492188 C 20.988281 32.890625 20.347656 33.3125 19.722656 33.765625 C 19.097656 34.21875 18.492188 34.699219 17.910156 35.203125 C 17.328125 35.710938 16.769531 36.242188 16.234375 36.800781 C 15.703125 37.355469 15.191406 37.933594 14.710938 38.539062 C 14.230469 39.140625 13.773438 39.761719 13.347656 40.40625 C 12.921875 41.046875 12.523438 41.710938 12.15625 42.386719 C 11.789062 43.066406 11.453125 43.761719 11.148438 44.46875 C 10.84375 45.175781 10.570312 45.898438 10.328125 46.632812 C 10.089844 47.363281 9.882812 48.105469 9.707031 48.859375 C 9.53125 49.609375 9.394531 50.367188 9.285156 51.132812 C 9.179688 51.898438 9.109375 52.664062 9.070312 53.4375 C 9.035156 54.207031 9.03125 54.976562 9.0625 55.75 C 9.09375 56.519531 9.160156 57.289062 9.261719 58.050781 C 9.363281 58.816406 9.496094 59.578125 9.664062 60.328125 C 9.835938 61.082031 10.035156 61.828125 10.273438 62.5625 C 10.507812 63.296875 10.773438 64.019531 11.074219 64.730469 C 11.375 65.441406 11.707031 66.136719 12.070312 66.816406 C 12.429688 67.5 12.824219 68.164062 13.246094 68.808594 C 13.667969 69.453125 14.117188 70.082031 14.59375 70.6875 C 15.074219 71.292969 15.578125 71.875 16.105469 72.4375 C 16.636719 72.996094 17.191406 73.53125 17.769531 74.042969 C 18.347656 74.554688 18.949219 75.039062 19.570312 75.496094 C 20.191406 75.953125 20.832031 76.378906 21.492188 76.78125 C 22.152344 77.179688 22.828125 77.550781 23.523438 77.886719 C 24.214844 78.226562 24.921875 78.535156 25.644531 78.808594 C 26.363281 79.085938 27.09375 79.328125 27.839844 79.539062 C 27.445312 73.660156 28.226562 67.9375 30.179688 62.378906 C 29.699219 62.207031 29.253906 61.96875 28.835938 61.675781 C 28.421875 61.378906 28.054688 61.03125 27.734375 60.632812 C 27.414062 60.234375 27.152344 59.800781 26.953125 59.332031 C 26.75 58.863281 26.617188 58.375 26.550781 57.871094 C 26.296875 55.8125 26.566406 53.824219 27.351562 51.90625 C 28.207031 49.484375 29.371094 47.222656 30.847656 45.121094 C 31.058594 44.808594 31.371094 44.472656 31.734375 44.550781 C 32.25 44.660156 32.25 45.386719 32.105469 45.890625 C 31.394531 48.5 30.234375 51.046875 30.179688 53.753906 C 30.121094 54.1875 30.234375 54.570312 30.527344 54.898438 C 31.121094 55.394531 32 54.757812 32.425781 54.097656 C 34.414062 51.144531 34.820312 47.300781 37.03125 44.507812 C 37.160156 44.304688 37.339844 44.160156 37.5625 44.074219 C 37.769531 44.050781 37.957031 44.101562 38.128906 44.222656 C 38.296875 44.347656 38.40625 44.507812 38.449219 44.710938 C 38.523438 45.132812 38.484375 45.542969 38.335938 45.945312 C 37.742188 48.164062 37.152344 50.363281 36.558594 52.546875 C 36.292969 53.515625 36.222656 54.863281 37.164062 55.207031 C 37.875 55.457031 38.582031 54.878906 39.105469 54.320312 C 40.960938 52.441406 43.980469 47.753906 44.679688 48.679688 C 45.175781 49.566406 44.476562 50.90625 44.21875 52.023438 C 42.71875 58.4375 39.222656 61.304688 34.785156 62.519531 C 34.332031 62.644531 33.898438 62.574219 33.746094 62.796875 C 33.59375 63.011719 33.503906 63.25 33.480469 63.515625 C 32.441406 69.070312 34.367188 75.136719 36.328125 80.472656 C 37.15625 80.421875 37.980469 80.332031 38.800781 80.207031 C 39.621094 80.078125 40.433594 79.910156 41.234375 79.703125 C 42.039062 79.5 42.832031 79.253906 43.613281 78.972656 C 44.390625 78.691406 45.15625 78.371094 45.90625 78.015625 C 46.65625 77.65625 47.386719 77.265625 48.097656 76.839844 C 48.808594 76.414062 49.496094 75.953125 50.164062 75.460938 C 50.832031 74.96875 51.472656 74.445312 52.089844 73.890625 C 52.707031 73.335938 53.296875 72.75 53.855469 72.140625 C 54.417969 71.527344 54.949219 70.890625 55.445312 70.230469 C 55.945312 69.566406 56.414062 68.882812 56.84375 68.175781 C 57.277344 67.464844 57.675781 66.738281 58.039062 65.996094 C 58.402344 65.25 58.730469 64.488281 59.019531 63.710938 C 59.308594 62.933594 59.5625 62.144531 59.773438 61.339844 C 59.988281 60.539062 60.164062 59.730469 60.300781 58.910156 C 60.433594 58.09375 60.53125 57.269531 60.585938 56.441406 C 60.644531 55.613281 60.660156 54.785156 60.636719 53.957031 C 60.613281 53.128906 60.550781 52.300781 60.449219 51.476562 C 60.34375 50.65625 60.203125 49.839844 60.019531 49.03125 C 59.839844 48.21875 59.617188 47.421875 59.359375 46.632812 C 59.101562 45.84375 58.804688 45.070312 58.472656 44.3125 C 58.140625 43.550781 57.769531 42.808594 57.367188 42.085938 C 56.960938 41.359375 56.523438 40.65625 56.050781 39.976562 C 55.578125 39.292969 55.074219 38.636719 54.539062 38.003906 C 54.003906 37.371094 53.4375 36.761719 52.84375 36.183594 C 52.25 35.605469 51.628906 35.058594 50.980469 34.539062 C 50.335938 34.019531 49.664062 33.53125 48.96875 33.078125 C 48.277344 32.621094 47.5625 32.203125 46.828125 31.816406 C 46.09375 31.429688 45.339844 31.082031 44.574219 30.769531 C 43.804688 30.453125 43.023438 30.179688 42.230469 29.941406 C 41.433594 29.703125 40.628906 29.503906 39.816406 29.34375 C 39.003906 29.183594 38.183594 29.0625 37.355469 28.980469 C 36.53125 28.898438 35.703125 28.855469 34.875 28.855469 Z M 34.875 28.855469 " fill-opacity="1" fill-rule="nonzero"/></g><path fill="#d93f21" d="M 27.839844 79.539062 C 27.839844 79.539062 30.765625 94.179688 36.402344 96.59375 C 41.628906 98.828125 45.417969 93.308594 42.1875 90.0625 C 38.957031 86.816406 36.355469 80.472656 36.355469 80.472656 C 30.261719 80.824219 27.839844 79.539062 27.839844 79.539062 Z M 27.839844 79.539062 " fill-opacity="1" fill-rule="nonzero"/><path fill="#d93f21" d="M 35.550781 24.835938 C 35.550781 24.835938 39.613281 23.230469 39.445312 18.980469 C 39.277344 14.730469 36.027344 13.246094 37.207031 9.582031 C 37.855469 7.578125 39.683594 6.832031 37.449219 7.578125 C 34.714844 8.464844 33.089844 11.828125 34.917969 15.394531 C 36.746094 18.960938 39.144531 20.699219 35.550781 24.835938 Z M 35.550781 24.835938 " fill-opacity="1" fill-rule="nonzero"/><path fill="#d93f21" d="M 46.550781 22.492188 C 46.425781 19.261719 43.941406 18.136719 44.847656 15.394531 C 45.335938 13.851562 46.730469 13.292969 45.015625 13.851562 C 42.941406 14.542969 41.707031 17.097656 43.089844 19.804688 C 44.476562 22.511719 46.320312 23.839844 43.578125 26.992188 C 43.578125 26.949219 46.675781 25.722656 46.550781 22.492188 Z M 46.550781 22.492188 " fill-opacity="1" fill-rule="nonzero"/><path fill="#d93f21" d="M 27.464844 26.949219 C 27.464844 26.949219 30.554688 25.722656 30.429688 22.511719 C 30.304688 19.296875 27.839844 18.152344 28.726562 15.410156 C 29.222656 13.867188 30.617188 13.308594 28.910156 13.867188 C 26.800781 14.5 25.585938 17.054688 26.984375 19.761719 C 28.386719 22.464844 30.207031 23.796875 27.464844 26.949219 Z M 27.464844 26.949219 " fill-opacity="1" fill-rule="nonzero"/></svg>