<svg width="35" height="35" viewBox="0 0 35 35" fill="none" xmlns="http://www.w3.org/2000/svg">
<path d="M13.7087 23.0535L17.5003 19.2619L21.292 23.0535L22.3245 22.021L18.5328 18.2294L22.3245 14.4377L21.292 13.4052L17.5003 17.1969L13.7087 13.4052L12.6762 14.4377L16.4678 18.2294L12.6762 22.021L13.7087 23.0535ZM11.107 29.1669C10.4352 29.1669 9.8747 28.9423 9.42553 28.4931C8.97637 28.0439 8.7513 27.483 8.75033 26.8102V8.7502H7.29199V7.29186H13.1253V6.16895H21.8753V7.29186H27.7087V8.7502H26.2503V26.8117C26.2503 27.4825 26.0257 28.043 25.5766 28.4931C25.1274 28.9433 24.5664 29.1678 23.8937 29.1669H11.107ZM24.792 8.7502H10.2087V26.8117C10.2087 27.0353 10.302 27.2409 10.4887 27.4285C10.6753 27.6162 10.881 27.7095 11.1055 27.7085H23.8951C24.1187 27.7085 24.3244 27.6152 24.512 27.4285C24.6996 27.2419 24.793 27.0362 24.792 26.8117V8.7502Z" fill="#C80101"/>
</svg>
