<svg width="35" height="35" viewBox="0 0 35 35" fill="none" xmlns="http://www.w3.org/2000/svg">
<path d="M8.29102 20.417V18.9587H18.4993V20.417H8.29102ZM8.29102 14.5837V13.1253H24.3327V14.5837H8.29102ZM8.29102 8.75033V7.29199H24.3327V8.75033H8.29102ZM20.2931 27.7087V24.4857L28.0718 16.7464C28.2157 16.62 28.364 16.5276 28.5166 16.4693C28.6693 16.411 28.8224 16.3808 28.976 16.3789C29.1432 16.3789 29.3075 16.41 29.4689 16.4722C29.6303 16.5354 29.7766 16.6297 29.9079 16.7551L31.2568 18.1318C31.3764 18.2757 31.4678 18.4254 31.531 18.581C31.5932 18.7355 31.6243 18.8906 31.6243 19.0462C31.6243 19.2017 31.5991 19.3582 31.5485 19.5157C31.498 19.6732 31.4007 19.8239 31.2568 19.9678L23.516 27.7087H20.2931ZM28.9848 20.4389L30.3337 19.0447L28.9862 17.6695L27.6008 19.0549L28.9848 20.4389Z" fill="#FFC107"/>
</svg>
