<svg width="44" height="44" viewBox="0 0 44 44" fill="none" xmlns="http://www.w3.org/2000/svg">
<path d="M39.1111 7.33301H4.8889C4.2406 7.33301 3.61884 7.59055 3.16042 8.04897C2.702 8.50739 2.44446 9.12915 2.44446 9.77745V34.2219C2.44446 34.8702 2.702 35.492 3.16042 35.9504C3.61884 36.4088 4.2406 36.6663 4.8889 36.6663H39.1111C39.7594 36.6663 40.3812 36.4088 40.8396 35.9504C41.298 35.492 41.5556 34.8702 41.5556 34.2219V9.77745C41.5556 9.12915 41.298 8.50739 40.8396 8.04897C40.3812 7.59055 39.7594 7.33301 39.1111 7.33301ZM23.2222 26.8886H11C10.6759 26.8886 10.365 26.7598 10.1358 26.5306C9.90656 26.3014 9.77779 25.9905 9.77779 25.6663C9.77779 25.3422 9.90656 25.0313 10.1358 24.8021C10.365 24.5729 10.6759 24.4441 11 24.4441H23.2222C23.5464 24.4441 23.8573 24.5729 24.0865 24.8021C24.3157 25.0313 24.4445 25.3422 24.4445 25.6663C24.4445 25.9905 24.3157 26.3014 24.0865 26.5306C23.8573 26.7598 23.5464 26.8886 23.2222 26.8886ZM33 21.9997H11C10.6759 21.9997 10.365 21.8709 10.1358 21.6417C9.90656 21.4125 9.77779 21.1016 9.77779 20.7775C9.77779 20.4533 9.90656 20.1424 10.1358 19.9132C10.365 19.684 10.6759 19.5552 11 19.5552H33C33.3242 19.5552 33.635 19.684 33.8643 19.9132C34.0935 20.1424 34.2222 20.4533 34.2222 20.7775C34.2222 21.1016 34.0935 21.4125 33.8643 21.6417C33.635 21.8709 33.3242 21.9997 33 21.9997ZM33 17.1108H11C10.6759 17.1108 10.365 16.982 10.1358 16.7528C9.90656 16.5236 9.77779 16.2127 9.77779 15.8886C9.77779 15.5644 9.90656 15.2535 10.1358 15.0243C10.365 14.7951 10.6759 14.6663 11 14.6663H33C33.3242 14.6663 33.635 14.7951 33.8643 15.0243C34.0935 15.2535 34.2222 15.5644 34.2222 15.8886C34.2222 16.2127 34.0935 16.5236 33.8643 16.7528C33.635 16.982 33.3242 17.1108 33 17.1108Z" fill="#878787"/>
</svg>
