<svg width="29" height="29" viewBox="0 0 29 29" fill="none" xmlns="http://www.w3.org/2000/svg">
<path d="M27.1889 28.683L16.3528 17.8482C15.4875 18.5853 14.4925 19.1557 13.3677 19.5594C12.2429 19.9632 11.1124 20.165 9.97604 20.165C7.20501 20.165 4.85967 19.2059 2.94002 17.2876C1.02037 15.3694 0.0605469 13.0249 0.0605469 10.2542C0.0605469 7.48352 1.01922 5.13789 2.93656 3.21732C4.8539 1.29676 7.19809 0.335319 9.96912 0.333012C12.7401 0.330705 15.0866 1.29041 17.0086 3.21213C18.9306 5.13385 19.8915 7.47948 19.8915 10.249C19.8915 11.451 19.6787 12.6143 19.253 13.7389C18.8273 14.8636 18.2678 15.8256 17.5745 16.625L28.4105 27.458L27.1889 28.683ZM9.97777 18.4331C12.2735 18.4331 14.2116 17.6429 15.7921 16.0626C17.3726 14.4823 18.1628 12.5439 18.1628 10.2473C18.1628 7.95068 17.3726 6.01282 15.7921 4.43368C14.2116 2.85455 12.2735 2.06441 9.97777 2.06325C7.68203 2.0621 5.74335 2.85224 4.16172 4.43368C2.58009 6.01512 1.78985 7.95299 1.791 10.2473C1.79215 12.5416 2.58239 14.4795 4.16172 16.0609C5.74104 17.6423 7.67915 18.4325 9.97604 18.4313" fill="#FAF8F5"/>
</svg>
