<svg width="78" height="78" viewBox="0 0 78 78" fill="none" xmlns="http://www.w3.org/2000/svg">
<path d="M63.4627 15.5968C67.4017 24.0728 66.508 34.0503 62.1465 42.1591C58.5682 48.8118 53.2285 54.3141 48.828 60.4046C46.8162 63.1931 44.785 66.0921 43.4037 69.2673C42.9455 70.3236 42.549 71.4058 42.159 72.4913C41.7657 73.5736 41.431 74.6786 41.054 75.7673C40.6997 76.7878 40.287 77.9903 39.0162 78.0001H38.9935C37.479 77.9968 37.1117 76.2776 36.7347 75.1173C35.8117 72.2768 34.8465 69.5501 33.423 66.9111C31.7655 63.8431 29.7017 61.0058 27.6055 58.2303L63.4627 15.5968ZM27.7712 25.0413L14.9045 40.3391C17.2575 45.3441 20.8227 49.6438 24.2352 53.9241C25.039 54.9316 25.8375 55.9456 26.6305 56.9661L42.8285 37.7098L42.7342 37.7423C37.076 39.6956 30.7385 36.7966 28.4602 31.2846C28.1491 30.5362 27.9214 29.7558 27.781 28.9576C27.5762 27.5373 27.5307 26.4843 27.768 25.0641L27.7712 25.0413ZM17.849 10.2343L17.8392 10.2473C11.5115 18.2618 10.426 29.3573 14.209 38.7498L29.7602 20.2606L29.5717 20.0981L17.849 10.2343ZM47.6482 1.41706L35.1747 16.2468L35.2625 16.2143C40.4625 14.4236 46.3222 16.7018 48.9775 21.4988C49.5495 22.5356 50.0272 23.7186 50.2027 24.8951C50.4237 26.3446 50.479 27.4073 50.2417 28.8601L50.232 28.9121L62.699 14.0888C59.4415 8.14626 54.0856 3.63161 47.6775 1.42681L47.6482 1.41706ZM30.7645 19.0711L46.0265 0.926311L45.8737 0.887311C43.6154 0.293324 41.2896 -0.00491922 38.9545 6.13603e-05C35.1735 0.0356714 31.4406 0.852617 27.9904 2.3996C24.5402 3.94659 21.447 6.1902 18.9052 8.98956L18.8532 9.04806L30.7645 19.0711Z" fill="#FAF8F5"/>
</svg>
