<svg width="32" height="32" viewBox="0 0 32 32" fill="none" xmlns="http://www.w3.org/2000/svg">
<path d="M25.773 8.92539L26.333 7.08939C26.3842 6.92191 26.4679 6.76616 26.5793 6.63103C26.6907 6.4959 26.8276 6.38403 26.9823 6.30182C27.1369 6.21961 27.3062 6.16866 27.4806 6.15189C27.6549 6.13511 27.8308 6.15284 27.9983 6.20406C28.1658 6.25527 28.3215 6.33897 28.4567 6.45038C28.5918 6.56179 28.7037 6.69872 28.7859 6.85336C28.8681 7.008 28.919 7.17732 28.9358 7.35165C28.9526 7.52598 28.9349 7.70191 28.8836 7.86939L27.3236 12.9694C27.2203 13.3074 26.9869 13.5905 26.6749 13.7565C26.3629 13.9225 25.9977 13.9578 25.6596 13.8547L20.5596 12.2947C20.3887 12.2466 20.229 12.1648 20.0901 12.0541C19.9512 11.9434 19.8358 11.8061 19.7506 11.6502C19.6655 11.4943 19.6124 11.323 19.5944 11.1463C19.5764 10.9695 19.594 10.791 19.6459 10.6212C19.6979 10.4513 19.7833 10.2936 19.8971 10.1572C20.0108 10.0208 20.1507 9.90848 20.3085 9.82689C20.4663 9.74531 20.6388 9.69607 20.8158 9.68208C20.9929 9.66808 21.171 9.68961 21.3396 9.74539L23.569 10.4267C22.5834 8.93192 21.2088 7.73429 19.5931 6.96283C17.9773 6.19137 16.1818 5.87531 14.3997 6.04869C12.6177 6.22206 10.9167 6.87831 9.47998 7.94674C8.04325 9.01518 6.92523 10.4553 6.24631 12.1121L5.89964 12.9561C5.83659 13.1227 5.7408 13.2749 5.61792 13.4039C5.49504 13.5329 5.34756 13.6359 5.18419 13.7069C5.02082 13.778 4.84488 13.8155 4.66676 13.8174C4.48863 13.8193 4.31193 13.7855 4.14709 13.7179C3.98226 13.6504 3.83263 13.5505 3.70704 13.4242C3.58144 13.2978 3.48244 13.1476 3.41587 12.9824C3.34931 12.8172 3.31652 12.6403 3.31946 12.4622C3.3224 12.2841 3.361 12.1083 3.43298 11.9454L3.77964 11.1014C4.64128 8.99909 6.05927 7.17119 7.88135 5.81395C9.70343 4.45671 11.8608 3.62139 14.1218 3.39769C16.3827 3.17399 18.662 3.57036 20.7147 4.54423C22.7674 5.5181 24.5161 7.0327 25.773 8.92539ZM5.07698 23.0761L4.64097 24.8241C4.60196 24.9974 4.5287 25.1612 4.42547 25.3059C4.32225 25.4505 4.19116 25.5731 4.0399 25.6663C3.88865 25.7596 3.72028 25.8216 3.54468 25.8489C3.36909 25.8762 3.18983 25.868 3.01742 25.825C2.84501 25.782 2.68293 25.705 2.54072 25.5984C2.39851 25.4919 2.27903 25.358 2.18931 25.2046C2.09958 25.0512 2.04142 24.8815 2.01823 24.7053C1.99505 24.5291 2.00731 24.3501 2.05431 24.1787L3.34364 19.0054C3.38714 18.8292 3.46613 18.6638 3.57578 18.5193C3.68542 18.3747 3.82342 18.2541 3.98132 18.1647C4.13921 18.0753 4.31368 18.0191 4.49406 17.9995C4.67443 17.9799 4.8569 17.9974 5.03031 18.0507L10.1343 19.3227C10.4775 19.4083 10.7726 19.6267 10.9548 19.9299C11.137 20.2331 11.1912 20.5962 11.1056 20.9394C11.0201 21.2826 10.8017 21.5777 10.4985 21.7599C10.1953 21.942 9.83217 21.9963 9.48898 21.9107L7.10764 21.3174C8.12567 22.8758 9.56465 24.1138 11.2577 24.8875C12.9507 25.6613 14.8285 25.9393 16.6731 25.6892C18.5177 25.4391 20.2536 24.6711 21.6795 23.4744C23.1053 22.2777 24.1627 20.7013 24.729 18.9281C24.8365 18.5911 25.0734 18.3106 25.3878 18.1483C25.5434 18.0679 25.7133 18.019 25.8879 18.0043C26.0624 17.9897 26.2381 18.0095 26.405 18.0627C26.5718 18.116 26.7266 18.2015 26.8604 18.3146C26.9942 18.4276 27.1044 18.5659 27.1848 18.7215C27.2651 18.8771 27.314 19.0471 27.3287 19.2216C27.3434 19.3961 27.3235 19.5719 27.2703 19.7387C26.7153 21.48 25.7854 23.0786 24.5461 24.4218C23.3068 25.765 21.7881 26.8203 20.097 27.5134C17.4621 28.5928 14.5378 28.7415 11.807 27.9347C9.07627 27.128 6.70226 25.4141 5.07698 23.0761Z" fill="#0A76E1"/>
</svg>
