<svg width="35" height="35" viewBox="0 0 35 35" fill="none" xmlns="http://www.w3.org/2000/svg">
<path d="M20.2595 17.5001L14.0674 11.3081C13.9313 11.1719 13.8584 11.0042 13.8487 10.8049C13.839 10.6076 13.9119 10.4311 14.0674 10.2756C14.223 10.12 14.3951 10.0422 14.5837 10.0422C14.7723 10.0422 14.9444 10.12 15.0999 10.2756L21.4991 16.6762C21.6265 16.8026 21.7159 16.9324 21.7674 17.0656C21.819 17.1978 21.8447 17.3426 21.8447 17.5001C21.8447 17.6576 21.819 17.8025 21.7674 17.9347C21.7159 18.067 21.6265 18.1967 21.4991 18.3241L15.0999 24.7247C14.9638 24.8608 14.7966 24.9338 14.5983 24.9435C14.3999 24.9532 14.223 24.8803 14.0674 24.7247C13.9119 24.5692 13.8341 24.3971 13.8341 24.2085C13.8341 24.0199 13.9119 23.8478 14.0674 23.6922L20.2595 17.5001Z" fill="#878787"/>
</svg>
