<svg width="78" height="78" viewBox="0 0 78 78" fill="none" xmlns="http://www.w3.org/2000/svg">
<path d="M71.4675 21.2778C71.4373 19.8836 71.3255 18.4924 71.1327 17.1112C70.8997 15.883 70.5029 14.6915 69.953 13.5688C68.7506 11.1936 66.822 9.26381 64.4475 8.06C63.3318 7.5131 62.1481 7.11745 60.9277 6.8835C59.536 6.68731 58.1339 6.57336 56.7287 6.54225C56.134 6.5195 55.3637 6.50975 55.0062 6.50975L23.0002 6.5C22.6427 6.5 21.8725 6.50975 21.2778 6.5325C19.8836 6.56273 18.4924 6.6745 17.1112 6.86725C15.883 7.10027 14.6915 7.49707 13.5688 8.047C11.1936 9.24941 9.26381 11.178 8.06 13.5525C7.5131 14.6682 7.11745 15.8519 6.8835 17.0722C6.68622 18.4639 6.57119 19.866 6.539 21.2712C6.5195 21.866 6.5065 22.6362 6.5065 22.9937L6.5 54.9998C6.5 55.3573 6.50975 56.1275 6.5325 56.7222C6.56273 58.1164 6.6745 59.5076 6.86725 60.8888C7.10027 62.117 7.49707 63.3085 8.047 64.4313C9.24941 66.8064 11.178 68.7362 13.5525 69.94C14.6682 70.4869 15.8519 70.8826 17.0722 71.1165C18.464 71.3127 19.8661 71.4266 21.2712 71.4577C21.866 71.4805 22.6362 71.4902 22.9937 71.4902L54.9998 71.4967C55.3573 71.4967 56.1275 71.487 56.7222 71.4642C58.1164 71.434 59.5076 71.3223 60.8888 71.1295C62.117 70.8965 63.3085 70.4997 64.4313 69.9498C66.8076 68.7479 68.7386 66.8192 69.9432 64.4443C70.4901 63.3285 70.8858 62.1448 71.1198 60.9245C71.317 59.5328 71.4321 58.1307 71.4642 56.7255C71.4837 56.1308 71.4967 55.3605 71.4967 55.003L71.5 23.0002C71.5 22.6427 71.4902 21.8725 71.4675 21.2778ZM39.7052 61.6103H39.6955C35.8264 61.6131 32.0188 60.643 28.6228 58.7893L16.3377 62.01L19.6267 50.0078C17.0802 45.5888 16.0627 40.4531 16.732 35.397C17.4012 30.3409 19.7199 25.6468 23.3284 22.0426C26.9369 18.4383 31.6338 16.1253 36.6907 15.462C41.7476 14.7988 46.882 15.8224 51.298 18.3742C55.7139 20.926 59.1646 24.8633 61.1151 29.5759C63.0656 34.2884 63.4069 39.5127 62.086 44.4389C60.7652 49.3651 57.856 53.718 53.8096 56.8225C49.7631 59.9271 44.8055 61.61 39.7052 61.6103Z" fill="#FAF8F5"/>
<path d="M39.715 19.1783C36.2736 19.1773 32.8947 20.0983 29.9297 21.8455C26.9648 23.5928 24.5221 26.1024 22.8556 29.1135C21.1891 32.1246 20.3598 35.5272 20.4538 38.9674C20.5479 42.4076 21.5618 45.7597 23.3903 48.6753L23.8485 49.4033L21.9018 56.5078L29.1915 54.5968L29.8935 55.0128C32.8599 56.773 36.2462 57.7004 39.6955 57.6973H39.7053C44.8137 57.6982 49.7131 55.6697 53.3259 52.0581C56.9387 48.4466 58.9688 43.5478 58.9697 38.4394C58.9705 33.3311 56.9421 28.4316 53.3305 24.8188C49.719 21.206 44.8202 19.1759 39.7118 19.175L39.715 19.1783ZM51.038 46.7058C50.6126 47.4098 50.0458 48.018 49.3734 48.4918C48.701 48.9656 47.9376 49.2948 47.1315 49.4586C45.9149 49.6676 44.6663 49.5897 43.485 49.231C42.3642 48.8836 41.263 48.4756 40.1863 48.009C36.1879 46.0025 32.7799 42.9909 30.2965 39.2698C28.9414 37.5475 28.119 35.4667 27.9305 33.2833C27.9155 32.3822 28.0881 31.4878 28.4372 30.657C28.7863 29.8261 29.3044 29.077 29.9585 28.457C30.1526 28.2371 30.3898 28.0593 30.6553 27.9347C30.9208 27.81 31.2091 27.7411 31.5023 27.7323C31.8858 27.7323 32.2725 27.7323 32.6105 27.7518C32.968 27.768 33.4425 27.6153 33.9105 28.7463C34.398 29.9033 35.555 32.7535 35.698 33.0428C35.7893 33.1946 35.8415 33.3667 35.85 33.5437C35.8585 33.7206 35.823 33.8969 35.7468 34.0568C35.6016 34.4048 35.4068 34.73 35.1683 35.022C34.8758 35.36 34.5605 35.776 34.3005 36.036C34.008 36.3253 33.709 36.6373 34.0438 37.2158C34.9146 38.7036 35.9998 40.0549 37.2645 41.2263C38.6396 42.4455 40.2152 43.4175 41.9218 44.0993C42.5003 44.3918 42.8383 44.3398 43.1763 43.953C43.5143 43.5663 44.6225 42.2631 45.0093 41.6845C45.396 41.106 45.7795 41.2036 46.3093 41.3953C46.839 41.587 49.6893 42.9878 50.2678 43.2803C50.8463 43.5728 51.233 43.7125 51.376 43.953C51.5323 44.884 51.4148 45.8403 51.038 46.7058Z" fill="#FAF8F5"/>
</svg>
